<?xml version="1.0" standalone="no"?>
<!DOCTYPE svg PUBLIC "-//W3C//DTD SVG 20010904//EN"
 "http://www.w3.org/TR/2001/REC-SVG-20010904/DTD/svg10.dtd">
<svg version="1.0" xmlns="http://www.w3.org/2000/svg"
 width="256.000000pt" height="256.000000pt" viewBox="0 0 256.000000 256.000000"
 preserveAspectRatio="xMidYMid meet">
<metadata>
Created by potrace 1.15, written by Peter Selinger 2001-2017
</metadata>
<g transform="translate(0.000000,256.000000) scale(0.100000,-0.100000)"
fill="#000000" stroke="none">
<path d="M0 1280 l0 -1280 1280 0 1280 0 0 1280 0 1280 -1280 0 -1280 0 0
-1280z m1022 699 c137 -32 229 -95 295 -201 l36 -58 47 68 c70 99 158 156 298
194 109 29 277 28 392 -1 100 -26 235 -89 269 -125 31 -33 37 -93 22 -227 -17
-152 -21 -166 -47 -192 -37 -37 -167 -58 -253 -41 -51 10 -76 45 -96 134 l-18
80 -66 0 c-36 0 -83 -3 -103 -6 -33 -6 -39 -11 -52 -51 -28 -83 -40 -239 -28
-352 14 -117 41 -190 85 -227 26 -22 37 -25 96 -22 l66 3 18 85 c10 47 24 95
32 106 22 34 77 47 170 42 88 -6 142 -25 163 -59 15 -24 42 -225 42 -312 0
-88 -20 -121 -94 -157 -84 -41 -223 -79 -336 -92 -240 -28 -475 70 -575 241
-16 28 -33 51 -37 51 -3 0 -17 -19 -31 -42 -29 -49 -103 -123 -161 -161 -49
-32 -44 -34 101 -45 128 -10 157 -23 172 -79 14 -48 -11 -169 -47 -238 -37
-69 -76 -88 -162 -81 -85 7 -191 37 -306 87 -143 60 -177 66 -281 44 -141 -29
-163 -30 -203 -3 -45 31 -88 102 -96 159 -8 62 15 112 65 136 l36 17 -70 71
c-83 82 -123 157 -157 291 -20 77 -23 113 -22 269 1 152 4 192 23 260 36 132
103 255 171 313 159 136 386 179 642 121z"/>
<path d="M641 1880 c-178 -47 -283 -162 -332 -366 -28 -114 -31 -339 -6 -454
34 -155 121 -281 230 -334 103 -51 286 -71 409 -45 130 27 245 113 307 228 53
99 74 212 74 391 0 124 -4 172 -21 242 -50 205 -145 304 -327 343 -98 21 -243
18 -334 -5z m281 -187 c58 -23 112 -91 139 -175 21 -65 24 -92 24 -233 0 -182
-18 -265 -75 -342 -73 -99 -251 -123 -361 -47 -42 28 -79 92 -105 179 -28 92
-26 361 4 469 28 101 49 137 87 148 103 29 216 29 287 1z"/>
<path d="M699 1603 c-21 -3 -29 -13 -42 -56 -44 -140 -41 -399 7 -503 30 -65
63 -84 143 -84 75 0 113 23 142 85 44 93 51 313 15 436 -11 35 -29 67 -54 91
-37 37 -39 38 -111 37 -41 -1 -86 -4 -100 -6z"/>
<path d="M1734 1885 c-165 -36 -274 -144 -328 -323 -61 -208 -31 -546 62 -692
62 -96 165 -167 282 -191 127 -27 344 3 489 67 l53 24 -7 82 c-7 85 -24 220
-28 224 -1 1 -38 4 -81 6 l-80 3 -18 -99 c-10 -55 -21 -103 -25 -106 -38 -34
-213 -41 -278 -11 -48 21 -90 69 -117 129 -65 145 -63 451 3 628 18 47 25 55
57 64 86 24 181 33 253 22 39 -6 72 -12 74 -14 2 -2 14 -46 27 -98 l24 -95 77
-3 c94 -3 91 -8 105 164 9 106 9 119 -6 130 -32 24 -166 76 -232 90 -81 17
-225 17 -306 -1z"/>
<path d="M605 607 c-38 -13 -94 -34 -122 -47 -48 -20 -52 -25 -47 -49 11 -46
52 -92 77 -86 12 3 51 12 87 20 129 29 204 18 373 -56 94 -42 180 -65 257 -71
45 -3 45 -2 68 43 12 25 25 68 29 96 l5 50 -103 5 c-80 4 -120 12 -174 32
-179 69 -211 78 -295 82 -71 4 -97 0 -155 -19z"/>
</g>
</svg>
